<mxfile host="app.diagrams.net" modified="2024-06-13T06:24:00.958Z" agent="Mozilla/5.0 (Windows NT 10.0; Win64; x64) AppleWebKit/537.36 (KHTML, like Gecko) Chrome/125.0.0.0 Safari/537.36" etag="L40zdZNJDGezZzzpzx2Y" version="24.4.14" type="github">
  <diagram name="第 1 页" id="kYvhPHC8dO5k0wE7vuQY">
    <mxGraphModel dx="1430" dy="763" grid="1" gridSize="10" guides="1" tooltips="1" connect="1" arrows="1" fold="1" page="1" pageScale="1" pageWidth="827" pageHeight="1169" math="0" shadow="0">
      <root>
        <mxCell id="0" />
        <mxCell id="1" parent="0" />
        <mxCell id="ZVRKJRaiODZhPLu4yon9-1" value="Repcodec" style="rounded=0;whiteSpace=wrap;html=1;" vertex="1" parent="1">
          <mxGeometry x="90" y="418" width="100" height="40" as="geometry" />
        </mxCell>
        <mxCell id="ZVRKJRaiODZhPLu4yon9-2" value="" style="endArrow=classic;html=1;rounded=0;" edge="1" parent="1">
          <mxGeometry width="50" height="50" relative="1" as="geometry">
            <mxPoint x="139.5" y="348" as="sourcePoint" />
            <mxPoint x="139.5" y="408" as="targetPoint" />
          </mxGeometry>
        </mxCell>
        <mxCell id="ZVRKJRaiODZhPLu4yon9-3" value="SSL" style="text;strokeColor=none;align=center;fillColor=none;html=1;verticalAlign=middle;whiteSpace=wrap;rounded=0;" vertex="1" parent="1">
          <mxGeometry x="110" y="318" width="60" height="30" as="geometry" />
        </mxCell>
        <mxCell id="ZVRKJRaiODZhPLu4yon9-4" value="" style="endArrow=classic;html=1;rounded=0;" edge="1" parent="1">
          <mxGeometry width="50" height="50" relative="1" as="geometry">
            <mxPoint x="205" y="437.5" as="sourcePoint" />
            <mxPoint x="265" y="437.5" as="targetPoint" />
          </mxGeometry>
        </mxCell>
        <mxCell id="ZVRKJRaiODZhPLu4yon9-5" value="codes" style="text;strokeColor=none;align=center;fillColor=none;html=1;verticalAlign=middle;whiteSpace=wrap;rounded=0;" vertex="1" parent="1">
          <mxGeometry x="205" y="398" width="60" height="30" as="geometry" />
        </mxCell>
        <mxCell id="ZVRKJRaiODZhPLu4yon9-6" value="Prior Encoder" style="rounded=0;whiteSpace=wrap;html=1;" vertex="1" parent="1">
          <mxGeometry x="285" y="418" width="150" height="40" as="geometry" />
        </mxCell>
        <mxCell id="ZVRKJRaiODZhPLu4yon9-7" value="Speaker Encoder" style="rounded=0;whiteSpace=wrap;html=1;" vertex="1" parent="1">
          <mxGeometry x="525" y="418" width="100" height="40" as="geometry" />
        </mxCell>
        <mxCell id="ZVRKJRaiODZhPLu4yon9-8" value="x-vector" style="text;strokeColor=none;align=center;fillColor=none;html=1;verticalAlign=middle;whiteSpace=wrap;rounded=0;" vertex="1" parent="1">
          <mxGeometry x="545" y="388" width="60" height="30" as="geometry" />
        </mxCell>
        <mxCell id="ZVRKJRaiODZhPLu4yon9-9" value="wav" style="text;strokeColor=none;align=center;fillColor=none;html=1;verticalAlign=middle;whiteSpace=wrap;rounded=0;" vertex="1" parent="1">
          <mxGeometry x="705" y="423" width="60" height="30" as="geometry" />
        </mxCell>
        <mxCell id="ZVRKJRaiODZhPLu4yon9-10" value="" style="endArrow=classic;html=1;rounded=0;" edge="1" parent="1">
          <mxGeometry width="50" height="50" relative="1" as="geometry">
            <mxPoint x="510.5" y="437.5" as="sourcePoint" />
            <mxPoint x="445" y="437.5" as="targetPoint" />
          </mxGeometry>
        </mxCell>
        <mxCell id="ZVRKJRaiODZhPLu4yon9-11" value="" style="endArrow=classic;html=1;rounded=0;" edge="1" parent="1">
          <mxGeometry width="50" height="50" relative="1" as="geometry">
            <mxPoint x="315" y="418" as="sourcePoint" />
            <mxPoint x="315" y="358" as="targetPoint" />
          </mxGeometry>
        </mxCell>
        <mxCell id="ZVRKJRaiODZhPLu4yon9-12" value="" style="endArrow=classic;html=1;rounded=0;" edge="1" parent="1">
          <mxGeometry width="50" height="50" relative="1" as="geometry">
            <mxPoint x="405" y="418" as="sourcePoint" />
            <mxPoint x="405" y="358" as="targetPoint" />
          </mxGeometry>
        </mxCell>
        <mxCell id="ZVRKJRaiODZhPLu4yon9-13" value="m_p" style="text;strokeColor=none;align=center;fillColor=none;html=1;verticalAlign=middle;whiteSpace=wrap;rounded=0;" vertex="1" parent="1">
          <mxGeometry x="255" y="368" width="60" height="30" as="geometry" />
        </mxCell>
        <mxCell id="ZVRKJRaiODZhPLu4yon9-14" value="log(s_p)" style="text;strokeColor=none;align=center;fillColor=none;html=1;verticalAlign=middle;whiteSpace=wrap;rounded=0;" vertex="1" parent="1">
          <mxGeometry x="415" y="368" width="60" height="30" as="geometry" />
        </mxCell>
        <mxCell id="ZVRKJRaiODZhPLu4yon9-15" value="flow" style="rounded=0;whiteSpace=wrap;html=1;" vertex="1" parent="1">
          <mxGeometry x="290" y="310" width="150" height="40" as="geometry" />
        </mxCell>
        <mxCell id="ZVRKJRaiODZhPLu4yon9-19" value="Generator" style="rounded=0;whiteSpace=wrap;html=1;" vertex="1" parent="1">
          <mxGeometry x="524" y="230" width="100" height="40" as="geometry" />
        </mxCell>
        <mxCell id="ZVRKJRaiODZhPLu4yon9-21" value="" style="endArrow=classic;html=1;rounded=0;exitX=0;exitY=0.5;exitDx=0;exitDy=0;" edge="1" parent="1" source="ZVRKJRaiODZhPLu4yon9-9">
          <mxGeometry width="50" height="50" relative="1" as="geometry">
            <mxPoint x="625" y="508" as="sourcePoint" />
            <mxPoint x="645" y="438" as="targetPoint" />
          </mxGeometry>
        </mxCell>
        <mxCell id="ZVRKJRaiODZhPLu4yon9-22" value="Posterior&amp;nbsp; Encoder" style="rounded=0;whiteSpace=wrap;html=1;" vertex="1" parent="1">
          <mxGeometry x="524" y="310" width="100" height="40" as="geometry" />
        </mxCell>
        <mxCell id="ZVRKJRaiODZhPLu4yon9-27" value="" style="edgeStyle=orthogonalEdgeStyle;rounded=0;orthogonalLoop=1;jettySize=auto;html=1;" edge="1" parent="1" source="ZVRKJRaiODZhPLu4yon9-24" target="ZVRKJRaiODZhPLu4yon9-22">
          <mxGeometry relative="1" as="geometry" />
        </mxCell>
        <mxCell id="ZVRKJRaiODZhPLu4yon9-24" value="SSL" style="text;strokeColor=none;align=center;fillColor=none;html=1;verticalAlign=middle;whiteSpace=wrap;rounded=0;" vertex="1" parent="1">
          <mxGeometry x="650" y="315" width="60" height="30" as="geometry" />
        </mxCell>
        <mxCell id="ZVRKJRaiODZhPLu4yon9-25" value="wav" style="text;strokeColor=none;align=center;fillColor=none;html=1;verticalAlign=middle;whiteSpace=wrap;rounded=0;" vertex="1" parent="1">
          <mxGeometry x="543" y="180" width="60" height="30" as="geometry" />
        </mxCell>
        <mxCell id="ZVRKJRaiODZhPLu4yon9-26" value="" style="endArrow=classic;html=1;rounded=0;" edge="1" parent="1">
          <mxGeometry width="50" height="50" relative="1" as="geometry">
            <mxPoint x="664" y="329" as="sourcePoint" />
            <mxPoint x="624" y="329" as="targetPoint" />
          </mxGeometry>
        </mxCell>
        <mxCell id="ZVRKJRaiODZhPLu4yon9-28" value="" style="endArrow=classic;html=1;rounded=0;" edge="1" parent="1">
          <mxGeometry width="50" height="50" relative="1" as="geometry">
            <mxPoint x="573" y="300" as="sourcePoint" />
            <mxPoint x="573" y="273" as="targetPoint" />
          </mxGeometry>
        </mxCell>
        <mxCell id="ZVRKJRaiODZhPLu4yon9-29" value="" style="endArrow=classic;html=1;rounded=0;" edge="1" parent="1">
          <mxGeometry width="50" height="50" relative="1" as="geometry">
            <mxPoint x="572" y="231" as="sourcePoint" />
            <mxPoint x="572" y="204" as="targetPoint" />
          </mxGeometry>
        </mxCell>
        <mxCell id="ZVRKJRaiODZhPLu4yon9-31" value="" style="endArrow=classic;html=1;rounded=0;" edge="1" parent="1">
          <mxGeometry width="50" height="50" relative="1" as="geometry">
            <mxPoint x="504" y="331" as="sourcePoint" />
            <mxPoint x="460" y="331" as="targetPoint" />
          </mxGeometry>
        </mxCell>
      </root>
    </mxGraphModel>
  </diagram>
</mxfile>
